<svg width="129" height="50" viewBox="0 0 129 50" fill="none" xmlns="http://www.w3.org/2000/svg">
<path d="M61.5 23.36V27H46.324V7.4H61.136V11.04H50.832V15.296H59.932V18.824H50.832V23.36H61.5ZM65.0812 6.224H69.4492V27H65.0812V6.224ZM73.783 11.936H78.151V27H73.783V11.936ZM75.967 9.836C75.1644 9.836 74.511 9.60267 74.007 9.136C73.503 8.66933 73.251 8.09067 73.251 7.4C73.251 6.70933 73.503 6.13067 74.007 5.664C74.511 5.19733 75.1644 4.964 75.967 4.964C76.7697 4.964 77.423 5.188 77.927 5.636C78.431 6.084 78.683 6.644 78.683 7.316C78.683 8.044 78.431 8.65067 77.927 9.136C77.423 9.60267 76.7697 9.836 75.967 9.836ZM98.0249 11.936V24.48C98.0249 27.2427 97.3062 29.296 95.8689 30.64C94.4316 31.984 92.3316 32.656 89.5689 32.656C88.1129 32.656 86.7316 32.4787 85.4249 32.124C84.1182 31.7693 83.0356 31.256 82.1769 30.584L83.9129 27.448C84.5476 27.9707 85.3502 28.3813 86.3209 28.68C87.2916 28.9973 88.2622 29.156 89.2329 29.156C90.7449 29.156 91.8556 28.8107 92.5649 28.12C93.2929 27.448 93.6569 26.4213 93.6569 25.04V24.396C92.5182 25.6467 90.9316 26.272 88.8969 26.272C87.5156 26.272 86.2462 25.9733 85.0889 25.376C83.9502 24.76 83.0449 23.9013 82.3729 22.8C81.7009 21.6987 81.3649 20.4293 81.3649 18.992C81.3649 17.5547 81.7009 16.2853 82.3729 15.184C83.0449 14.0827 83.9502 13.2333 85.0889 12.636C86.2462 12.02 87.5156 11.712 88.8969 11.712C91.0809 11.712 92.7422 12.4307 93.8809 13.868V11.936H98.0249ZM89.7649 22.688C90.9222 22.688 91.8649 22.352 92.5929 21.68C93.3396 20.9893 93.7129 20.0933 93.7129 18.992C93.7129 17.8907 93.3396 17.004 92.5929 16.332C91.8649 15.6413 90.9222 15.296 89.7649 15.296C88.6076 15.296 87.6556 15.6413 86.9089 16.332C86.1622 17.004 85.7889 17.8907 85.7889 18.992C85.7889 20.0933 86.1622 20.9893 86.9089 21.68C87.6556 22.352 88.6076 22.688 89.7649 22.688ZM117.126 19.524C117.126 19.58 117.098 19.972 117.042 20.7H105.646C105.852 21.6333 106.337 22.3707 107.102 22.912C107.868 23.4533 108.82 23.724 109.958 23.724C110.742 23.724 111.433 23.612 112.03 23.388C112.646 23.1453 113.216 22.772 113.738 22.268L116.062 24.788C114.644 26.412 112.572 27.224 109.846 27.224C108.148 27.224 106.645 26.8973 105.338 26.244C104.032 25.572 103.024 24.648 102.314 23.472C101.605 22.296 101.25 20.9613 101.25 19.468C101.25 17.9933 101.596 16.668 102.286 15.492C102.996 14.2973 103.957 13.3733 105.17 12.72C106.402 12.048 107.774 11.712 109.286 11.712C110.761 11.712 112.096 12.0293 113.29 12.664C114.485 13.2987 115.418 14.2133 116.09 15.408C116.781 16.584 117.126 17.956 117.126 19.524ZM109.314 15.016C108.325 15.016 107.494 15.296 106.822 15.856C106.15 16.416 105.74 17.1813 105.59 18.152H113.01C112.861 17.2 112.45 16.444 111.778 15.884C111.106 15.3053 110.285 15.016 109.314 15.016Z" fill="#78BDD3"/>
<path d="M50.192 34.048H47.056V32.2H55.596V34.048H52.46V42H50.192V34.048ZM63.6662 34.468V42H61.5942V41.104C61.3049 41.4307 60.9596 41.6827 60.5582 41.86C60.1569 42.028 59.7229 42.112 59.2562 42.112C58.2669 42.112 57.4829 41.8273 56.9042 41.258C56.3256 40.6887 56.0362 39.844 56.0362 38.724V34.468H58.2202V38.402C58.2202 39.6153 58.7289 40.222 59.7462 40.222C60.2689 40.222 60.6889 40.054 61.0062 39.718C61.3236 39.3727 61.4822 38.864 61.4822 38.192V34.468H63.6662ZM73.6584 42.168C72.6597 42.168 71.7544 41.9533 70.9424 41.524C70.1397 41.0853 69.5051 40.4833 69.0384 39.718C68.5811 38.9433 68.3524 38.0707 68.3524 37.1C68.3524 36.1293 68.5811 35.2613 69.0384 34.496C69.5051 33.7213 70.1397 33.1193 70.9424 32.69C71.7544 32.2513 72.6644 32.032 73.6724 32.032C74.5217 32.032 75.2871 32.1813 75.9684 32.48C76.6591 32.7787 77.2377 33.208 77.7044 33.768L76.2484 35.112C75.5857 34.3467 74.7644 33.964 73.7844 33.964C73.1777 33.964 72.6364 34.0993 72.1604 34.37C71.6844 34.6313 71.3111 35 71.0404 35.476C70.7791 35.952 70.6484 36.4933 70.6484 37.1C70.6484 37.7067 70.7791 38.248 71.0404 38.724C71.3111 39.2 71.6844 39.5733 72.1604 39.844C72.6364 40.1053 73.1777 40.236 73.7844 40.236C74.7644 40.236 75.5857 39.8487 76.2484 39.074L77.7044 40.418C77.2377 40.9873 76.6591 41.4213 75.9684 41.72C75.2777 42.0187 74.5077 42.168 73.6584 42.168ZM81.6453 34.356C82.812 34.356 83.708 34.636 84.3333 35.196C84.9586 35.7467 85.2713 36.582 85.2713 37.702V42H83.2273V41.062C82.8166 41.762 82.0513 42.112 80.9313 42.112C80.3526 42.112 79.8486 42.014 79.4193 41.818C78.9993 41.622 78.6773 41.3513 78.4533 41.006C78.2293 40.6607 78.1173 40.2687 78.1173 39.83C78.1173 39.13 78.3786 38.5793 78.9013 38.178C79.4333 37.7767 80.25 37.576 81.3513 37.576H83.0873C83.0873 37.1 82.9426 36.736 82.6533 36.484C82.364 36.2227 81.93 36.092 81.3513 36.092C80.95 36.092 80.5533 36.1573 80.1613 36.288C79.7786 36.4093 79.452 36.5773 79.1813 36.792L78.3973 35.266C78.808 34.9767 79.298 34.7527 79.8673 34.594C80.446 34.4353 81.0386 34.356 81.6453 34.356ZM81.4773 40.642C81.8506 40.642 82.182 40.558 82.4713 40.39C82.7606 40.2127 82.966 39.956 83.0873 39.62V38.85H81.5893C80.6933 38.85 80.2453 39.144 80.2453 39.732C80.2453 40.012 80.3526 40.236 80.5673 40.404C80.7913 40.5627 81.0946 40.642 81.4773 40.642ZM88.9139 35.462C89.1753 35.098 89.5253 34.8227 89.9639 34.636C90.4119 34.4493 90.9253 34.356 91.5039 34.356V36.372C91.2613 36.3533 91.0979 36.344 91.0139 36.344C90.3886 36.344 89.8986 36.5213 89.5439 36.876C89.1893 37.2213 89.0119 37.744 89.0119 38.444V42H86.8279V34.468H88.9139V35.462ZM94.4685 35.462C94.7299 35.098 95.0799 34.8227 95.5185 34.636C95.9665 34.4493 96.4799 34.356 97.0585 34.356V36.372C96.8159 36.3533 96.6525 36.344 96.5685 36.344C95.9432 36.344 95.4532 36.5213 95.0985 36.876C94.7439 37.2213 94.5665 37.744 94.5665 38.444V42H92.3825V34.468H94.4685V35.462ZM105.247 38.262C105.247 38.29 105.233 38.486 105.205 38.85H99.5068C99.6094 39.3167 99.8521 39.6853 100.235 39.956C100.617 40.2267 101.093 40.362 101.663 40.362C102.055 40.362 102.4 40.306 102.699 40.194C103.007 40.0727 103.291 39.886 103.553 39.634L104.715 40.894C104.005 41.706 102.969 42.112 101.607 42.112C100.757 42.112 100.006 41.9487 99.3528 41.622C98.6994 41.286 98.1954 40.824 97.8408 40.236C97.4861 39.648 97.3088 38.9807 97.3088 38.234C97.3088 37.4967 97.4814 36.834 97.8268 36.246C98.1814 35.6487 98.6621 35.1867 99.2688 34.86C99.8848 34.524 100.571 34.356 101.327 34.356C102.064 34.356 102.731 34.5147 103.329 34.832C103.926 35.1493 104.393 35.6067 104.729 36.204C105.074 36.792 105.247 37.478 105.247 38.262ZM101.341 36.008C100.846 36.008 100.431 36.148 100.095 36.428C99.7588 36.708 99.5534 37.0907 99.4788 37.576H103.189C103.114 37.1 102.909 36.722 102.573 36.442C102.237 36.1527 101.826 36.008 101.341 36.008ZM108.367 35.462C108.628 35.098 108.978 34.8227 109.417 34.636C109.865 34.4493 110.378 34.356 110.957 34.356V36.372C110.714 36.3533 110.551 36.344 110.467 36.344C109.841 36.344 109.351 36.5213 108.997 36.876C108.642 37.2213 108.465 37.744 108.465 38.444V42H106.281V34.468H108.367V35.462ZM114.832 34.356C115.999 34.356 116.895 34.636 117.52 35.196C118.146 35.7467 118.458 36.582 118.458 37.702V42H116.414V41.062C116.004 41.762 115.238 42.112 114.118 42.112C113.54 42.112 113.036 42.014 112.606 41.818C112.186 41.622 111.864 41.3513 111.64 41.006C111.416 40.6607 111.304 40.2687 111.304 39.83C111.304 39.13 111.566 38.5793 112.088 38.178C112.62 37.7767 113.437 37.576 114.538 37.576H116.274C116.274 37.1 116.13 36.736 115.84 36.484C115.551 36.2227 115.117 36.092 114.538 36.092C114.137 36.092 113.74 36.1573 113.348 36.288C112.966 36.4093 112.639 36.5773 112.368 36.792L111.584 35.266C111.995 34.9767 112.485 34.7527 113.054 34.594C113.633 34.4353 114.226 34.356 114.832 34.356ZM114.664 40.642C115.038 40.642 115.369 40.558 115.658 40.39C115.948 40.2127 116.153 39.956 116.274 39.62V38.85H114.776C113.88 38.85 113.432 39.144 113.432 39.732C113.432 40.012 113.54 40.236 113.754 40.404C113.978 40.5627 114.282 40.642 114.664 40.642Z" fill="#C04BAB"/>
<path d="M36.7827 18.68V26.6474C36.7827 36.2524 28.9963 44.0388 19.3914 44.0388V44.0388C9.78637 44.0388 2 36.2524 2 26.6474V26.6474C2 17.0425 9.78638 9.25608 19.3914 9.25608H27.2965" stroke="#78BDD3" stroke-width="3"/>
<path fill-rule="evenodd" clip-rule="evenodd" d="M30.6963 4C30.1754 4 29.6775 4.21479 29.3201 4.59373L24.3812 9.82947C24.3197 9.8947 24.3213 9.99707 24.3849 10.0603L24.4775 10.1524C24.5481 10.2226 24.4984 10.3431 24.3988 10.3431C24.3561 10.3431 24.3171 10.3187 24.2985 10.2802L24.2468 10.1737C24.1573 9.98943 23.9138 9.94658 23.7669 10.0892L18.871 14.8419C18.8687 14.8441 18.8652 14.8445 18.8625 14.8429C18.8585 14.8405 18.8533 14.8425 18.852 14.847L14.3142 30.5198C14.2933 30.5919 14.2827 30.6665 14.2827 30.7415C14.2827 31.1817 14.6395 31.5386 15.0797 31.5387L15.2302 31.5388C15.3225 31.5388 15.4144 31.5253 15.5028 31.4988L27.1092 28.017C30.1103 27.1167 32.858 25.5238 35.1306 23.3668L35.8775 22.6579L37.4703 20.8855C37.5034 20.8486 37.503 20.7926 37.4693 20.7563C37.4336 20.7178 37.4356 20.6577 37.4736 20.6216L41.4053 16.8866C41.7851 16.5257 42.0002 16.0247 42.0002 15.5008C42.0002 13.798 39.9414 12.9453 38.7374 14.1493L34.2618 18.6247C33.9967 18.8898 33.6372 19.0387 33.2622 19.0387H32.336C31.2726 19.0387 30.8222 17.6842 31.6739 17.0475L37.2492 11.8098C37.4333 11.6368 37.5772 11.4254 37.6705 11.1907L37.7929 10.8829C38.3822 9.40048 36.7005 8.04815 35.3791 8.94184C35.291 9.00142 35.209 9.06953 35.1342 9.14518L30.3818 13.9549C29.26 15.0902 27.326 14.2958 27.326 12.6999C27.326 12.228 27.5128 11.7752 27.8456 11.4407L32.0377 7.22615C33.2246 6.03285 32.3794 4 30.6963 4ZM21.6963 16.3795C21.3863 16.5593 21.1467 16.8393 21.017 17.1734L19.4953 21.0928C18.9855 22.4059 19.8081 23.864 20.7893 24.8746C21.348 25.4501 21.7664 26.1624 21.9894 26.9566C22.0433 27.1487 22.2486 27.2627 22.4348 27.1911L29.2726 24.749C29.553 24.6488 29.789 24.4527 29.9387 24.1953C30.4279 23.3544 29.8212 22.2996 28.8483 22.2996H26.6125C25.2056 22.2996 24.0651 21.1591 24.0651 19.7522V17.7443C24.0651 16.5286 22.748 15.7698 21.6963 16.3795Z" fill="#C04BAB"/>
<path d="M23.9485 11.1158C23.6585 11.0143 23.5368 10.6705 23.6983 10.4091L24.0058 9.91162C24.0521 9.83671 24.1086 9.76861 24.1736 9.70924L25.9169 8.11787C26.2183 7.84279 26.7005 7.9427 26.8677 8.31488C26.9755 8.55491 26.9142 8.83722 26.7165 9.01086L24.4247 11.0233C24.2943 11.1378 24.1123 11.1732 23.9485 11.1158Z" fill="#C04BAB"/>
</svg>
