<svg width="426" height="105" viewBox="0 0 426 105" fill="none" xmlns="http://www.w3.org/2000/svg">
<g clip-path="url(#clip0)">
<path d="M31.939 7.0919C30.759 7.6109 29.499 7.9639 28.172 8.1249C29.524 7.3099 30.564 6.0259 31.056 4.4939C29.788 5.2339 28.383 5.7729 26.887 6.0729C25.692 4.7939 23.99 3.9939 22.099 3.9939C18.476 3.9939 15.539 6.9309 15.539 10.5499C15.539 11.0699 15.599 11.5699 15.708 12.0489C10.255 11.7919 5.421 9.1729 2.187 5.2139C1.618 6.1769 1.299 7.2949 1.299 8.5139C1.299 10.7939 2.459 12.7979 4.216 13.9749C3.14 13.9399 2.128 13.6439 1.245 13.1539V13.2349C1.245 16.4149 3.502 19.0669 6.506 19.6709C5.955 19.8189 5.374 19.8989 4.778 19.8989C4.359 19.8989 3.958 19.8589 3.557 19.7839C4.398 22.3879 6.817 24.2869 9.696 24.3399C7.456 26.0989 4.617 27.1469 1.56 27.1469C1.04 27.1469 0.521 27.1159 0 27.0579C2.919 28.9169 6.357 30.0029 10.076 30.0029C22.148 30.0029 28.741 20.0079 28.741 11.3549C28.741 11.0759 28.741 10.7949 28.721 10.5149C30.002 9.5959 31.121 8.4349 32.001 7.1179L31.938 7.0909L31.939 7.0919Z" fill="#1DA1F2"/>
</g>
<g clip-path="url(#clip1)">
<path d="M410 0C405.653 0 405.111 0.02 403.404 0.096C401.7 0.176 400.54 0.444 399.52 0.84C398.468 1.248 397.575 1.796 396.685 2.685C395.795 3.574 395.246 4.466 394.84 5.52C394.444 6.54 394.175 7.7 394.096 9.404C394.016 11.111 394 11.653 394 16C394 20.347 394.02 20.889 394.096 22.596C394.176 24.299 394.444 25.46 394.84 26.48C395.248 27.531 395.796 28.425 396.685 29.315C397.574 30.203 398.466 30.754 399.52 31.16C400.541 31.555 401.701 31.825 403.404 31.904C405.111 31.984 405.653 32 410 32C414.347 32 414.889 31.98 416.596 31.904C418.299 31.824 419.46 31.555 420.48 31.16C421.531 30.752 422.425 30.203 423.315 29.315C424.203 28.426 424.754 27.535 425.16 26.48C425.555 25.46 425.825 24.299 425.904 22.596C425.984 20.889 426 20.347 426 16C426 11.653 425.98 11.111 425.904 9.404C425.824 7.701 425.555 6.539 425.16 5.52C424.752 4.468 424.203 3.575 423.315 2.685C422.426 1.796 421.535 1.246 420.48 0.84C419.46 0.444 418.299 0.175 416.596 0.096C414.889 0.016 414.347 0 410 0V0ZM410 2.88C414.271 2.88 414.78 2.901 416.467 2.975C418.027 3.048 418.874 3.307 419.436 3.528C420.185 3.817 420.716 4.164 421.279 4.723C421.838 5.283 422.184 5.815 422.474 6.564C422.693 7.127 422.954 7.973 423.025 9.533C423.101 11.221 423.118 11.728 423.118 16C423.118 20.272 423.098 20.78 423.019 22.467C422.938 24.027 422.678 24.874 422.458 25.436C422.159 26.185 421.819 26.716 421.259 27.279C420.7 27.838 420.16 28.184 419.419 28.474C418.859 28.693 417.999 28.954 416.439 29.025C414.74 29.101 414.24 29.118 409.96 29.118C405.679 29.118 405.179 29.098 403.481 29.019C401.92 28.938 401.06 28.678 400.5 28.458C399.741 28.159 399.22 27.819 398.661 27.259C398.1 26.7 397.741 26.16 397.461 25.419C397.241 24.859 396.982 23.999 396.901 22.439C396.841 20.759 396.82 20.24 396.82 15.98C396.82 11.719 396.841 11.199 396.901 9.499C396.982 7.939 397.241 7.08 397.461 6.52C397.741 5.76 398.1 5.24 398.661 4.679C399.22 4.12 399.741 3.76 400.5 3.482C401.06 3.261 401.901 3.001 403.461 2.921C405.161 2.861 405.661 2.841 409.94 2.841L410 2.881V2.88ZM410 7.784C405.46 7.784 401.784 11.464 401.784 16C401.784 20.54 405.464 24.216 410 24.216C414.54 24.216 418.216 20.536 418.216 16C418.216 11.46 414.536 7.784 410 7.784ZM410 21.333C407.053 21.333 404.667 18.946 404.667 16C404.667 13.054 407.054 10.667 410 10.667C412.946 10.667 415.333 13.054 415.333 16C415.333 18.946 412.946 21.333 410 21.333ZM420.461 7.46C420.461 8.52 419.6 9.38 418.541 9.38C417.481 9.38 416.621 8.519 416.621 7.46C416.621 6.401 417.482 5.541 418.541 5.541C419.598 5.54 420.461 6.401 420.461 7.46Z" fill="#E4405F"/>
</g>
<g clip-path="url(#clip2)">
<path d="M227.235 2.34375e-05H198.766C197.791 2.34375e-05 197.001 0.791023 197.001 1.76502V30.234C197.001 31.21 197.792 31.999 198.766 31.999H214.091V19.607H209.919V14.779H214.091V11.212C214.091 7.08002 216.616 4.83202 220.303 4.83202C222.07 4.83202 223.588 4.96102 224.031 5.02002V9.34002H221.47C219.47 9.34002 219.081 10.301 219.081 11.701V14.782H223.86L223.24 19.622H219.081V31.998H227.234C228.211 31.998 229.001 31.209 229.001 30.233V1.76402C229.001 0.789024 228.212 -0.000976562 227.236 -0.000976562L227.235 2.34375e-05Z" fill="#3B5998"/>
</g>
<path d="M136.264 88.776H132.904L132.04 93C131.96 93.016 131.872 93.024 131.776 93.024C131.696 93.04 131.6 93.048 131.488 93.048C131.376 93.048 131.264 93.04 131.152 93.024C131.04 93.024 130.944 93.016 130.864 93L131.728 88.776H128.248L127.384 93C127.304 93.016 127.216 93.024 127.12 93.024C127.04 93.04 126.944 93.048 126.832 93.048C126.72 93.048 126.608 93.04 126.496 93.024C126.384 93.024 126.288 93.016 126.208 93L127.072 88.776H124.768C124.72 88.584 124.696 88.408 124.696 88.248C124.696 88.04 124.736 87.848 124.816 87.672H127.312L128.296 82.848H125.128C125.08 82.656 125.056 82.48 125.056 82.32C125.056 82.112 125.096 81.92 125.176 81.744H128.536L129.4 77.52C129.48 77.504 129.56 77.496 129.64 77.496C129.736 77.48 129.84 77.472 129.952 77.472C130.064 77.472 130.176 77.48 130.288 77.496C130.4 77.496 130.496 77.504 130.576 77.52L129.712 81.744H133.192L134.056 77.52C134.136 77.504 134.216 77.496 134.296 77.496C134.392 77.48 134.496 77.472 134.608 77.472C134.72 77.472 134.832 77.48 134.944 77.496C135.056 77.496 135.152 77.504 135.232 77.52L134.368 81.744H136.672C136.72 81.936 136.744 82.112 136.744 82.272C136.744 82.48 136.704 82.672 136.624 82.848H134.128L133.144 87.672H136.312C136.36 87.864 136.384 88.04 136.384 88.2C136.384 88.408 136.344 88.6 136.264 88.776ZM131.968 87.672L132.952 82.848H129.472L128.488 87.672H131.968ZM149.91 93H138.75C138.686 92.904 138.654 92.776 138.654 92.616C138.654 92.44 138.71 92.28 138.822 92.136L140.43 91.944V78.624H139.038C138.782 78.624 138.654 78.512 138.654 78.288C138.654 78.176 138.694 77.984 138.774 77.712L138.822 77.52H149.67C149.894 77.696 150.086 77.904 150.246 78.144L150.294 81.312C150.198 81.376 150.07 81.408 149.91 81.408C149.734 81.408 149.574 81.352 149.43 81.24L148.83 78.624H141.774V84.552H146.574L146.79 83.28C146.838 82.992 146.974 82.848 147.198 82.848C147.262 82.848 147.39 82.888 147.582 82.968L147.726 83.04V87.264C147.63 87.328 147.502 87.36 147.342 87.36C147.166 87.36 147.006 87.304 146.862 87.192L146.574 85.632H141.774V91.896H149.07L149.67 89.28C149.814 89.168 149.974 89.112 150.15 89.112C150.31 89.112 150.438 89.144 150.534 89.208L150.486 92.376C150.326 92.616 150.134 92.824 149.91 93ZM157.655 93H152.543C152.495 92.872 152.471 92.76 152.471 92.664C152.471 92.536 152.519 92.384 152.615 92.208L154.487 92.016V78.048H152.423C152.375 77.936 152.351 77.824 152.351 77.712C152.351 77.568 152.399 77.416 152.495 77.256L155.111 76.8C155.383 76.944 155.607 77.12 155.783 77.328V91.968H157.415C157.671 91.968 157.799 92.08 157.799 92.304C157.799 92.4 157.767 92.568 157.703 92.808L157.655 93ZM164.475 93H159.363C159.315 92.872 159.291 92.76 159.291 92.664C159.291 92.536 159.339 92.384 159.435 92.208L161.307 92.016V82.128H159.363C159.315 82.016 159.291 81.904 159.291 81.792C159.291 81.648 159.339 81.496 159.435 81.336L161.931 80.88C162.203 81.024 162.427 81.2 162.603 81.408V91.968H164.235C164.491 91.968 164.619 92.08 164.619 92.304C164.619 92.4 164.587 92.568 164.523 92.808L164.475 93ZM162.675 77.832C162.675 78.136 162.579 78.384 162.387 78.576C162.195 78.752 161.931 78.84 161.595 78.84C161.259 78.84 160.995 78.752 160.803 78.576C160.611 78.384 160.515 78.136 160.515 77.832C160.515 77.528 160.611 77.288 160.803 77.112C160.995 76.92 161.259 76.824 161.595 76.824C161.931 76.824 162.195 76.92 162.387 77.112C162.579 77.288 162.675 77.528 162.675 77.832ZM169.909 90.672H172.645C173.973 90.672 175.021 90.96 175.789 91.536C176.573 92.112 176.965 92.888 176.965 93.864C176.965 95.016 176.445 95.936 175.405 96.624C174.365 97.328 172.981 97.68 171.253 97.68C169.573 97.68 168.253 97.368 167.293 96.744C166.333 96.12 165.853 95.264 165.853 94.176C165.853 93.008 166.549 92.024 167.941 91.224C167.541 90.904 167.341 90.464 167.341 89.904C167.341 89.136 167.733 88.408 168.517 87.72C167.637 86.984 167.197 85.984 167.197 84.72C167.197 83.536 167.581 82.584 168.349 81.864C169.133 81.128 170.157 80.76 171.421 80.76C172.509 80.76 173.413 81.032 174.133 81.576L176.701 81.264C176.957 81.248 177.085 81.36 177.085 81.6C177.085 81.696 177.053 81.864 176.989 82.104L176.917 82.368H174.925C175.149 82.688 175.325 83.048 175.453 83.448C175.581 83.832 175.645 84.256 175.645 84.72C175.645 85.904 175.253 86.864 174.469 87.6C173.701 88.32 172.685 88.68 171.421 88.68C170.605 88.68 169.877 88.52 169.237 88.2C168.789 88.6 168.565 89.072 168.565 89.616C168.565 90.32 169.013 90.672 169.909 90.672ZM172.645 91.728H169.405C169.181 91.728 168.965 91.704 168.757 91.656C167.701 92.344 167.173 93.16 167.173 94.104C167.173 94.872 167.541 95.48 168.277 95.928C169.013 96.392 170.005 96.624 171.253 96.624C172.581 96.624 173.645 96.368 174.445 95.856C175.245 95.36 175.645 94.696 175.645 93.864C175.645 93.192 175.381 92.672 174.853 92.304C174.325 91.92 173.589 91.728 172.645 91.728ZM174.421 84.72C174.421 83.824 174.149 83.112 173.605 82.584C173.061 82.056 172.333 81.792 171.421 81.792C170.509 81.792 169.781 82.056 169.237 82.584C168.693 83.112 168.421 83.824 168.421 84.72C168.421 85.616 168.693 86.328 169.237 86.856C169.781 87.384 170.509 87.648 171.421 87.648C172.333 87.648 173.061 87.384 173.605 86.856C174.149 86.328 174.421 85.616 174.421 84.72ZM188.111 86.736H180.047V87C180.047 88.552 180.447 89.792 181.247 90.72C182.063 91.632 183.151 92.088 184.511 92.088C185.135 92.088 185.775 92 186.431 91.824C187.103 91.648 187.647 91.448 188.063 91.224C188.191 91.352 188.287 91.496 188.351 91.656C188.415 91.8 188.455 91.952 188.471 92.112C187.143 92.864 185.751 93.24 184.295 93.24C183.175 93.24 182.199 92.984 181.367 92.472C180.535 91.944 179.887 91.216 179.423 90.288C178.959 89.344 178.727 88.248 178.727 87C178.727 85.736 178.943 84.64 179.375 83.712C179.823 82.768 180.455 82.04 181.271 81.528C182.087 81.016 183.047 80.76 184.151 80.76C187.095 80.76 188.567 82.512 188.567 86.016C188.439 86.288 188.287 86.528 188.111 86.736ZM180.143 85.704H187.295C187.295 83.112 186.247 81.816 184.151 81.816C183.095 81.816 182.207 82.168 181.487 82.872C180.783 83.576 180.335 84.52 180.143 85.704ZM200.112 93H194.04C193.976 92.904 193.944 92.776 193.944 92.616C193.944 92.44 194 92.28 194.112 92.136L196.44 91.944V78.624H192.072L191.472 81.24C191.328 81.352 191.168 81.408 190.992 81.408C190.832 81.408 190.704 81.376 190.608 81.312L190.656 78.144C190.816 77.904 191.008 77.696 191.232 77.52H202.992C203.216 77.696 203.408 77.904 203.568 78.144L203.616 81.312C203.52 81.376 203.392 81.408 203.232 81.408C203.056 81.408 202.896 81.352 202.752 81.24L202.152 78.624H197.784V91.896H199.896C200.152 91.896 200.28 92.008 200.28 92.232C200.28 92.344 200.24 92.536 200.16 92.808L200.112 93ZM218.114 92.664L215.738 93.12C215.466 92.976 215.242 92.8 215.066 92.592L215.234 90.192C214.786 91.168 214.17 91.92 213.386 92.448C212.618 92.976 211.738 93.24 210.746 93.24C209.546 93.24 208.618 92.856 207.962 92.088C207.306 91.32 206.978 90.224 206.978 88.8V82.128H205.154C205.106 82.016 205.082 81.904 205.082 81.792C205.082 81.648 205.13 81.496 205.226 81.336L207.602 80.88C207.874 81.024 208.098 81.2 208.274 81.408V88.8C208.274 89.872 208.506 90.704 208.97 91.296C209.434 91.888 210.082 92.184 210.914 92.184C211.65 92.184 212.33 91.968 212.954 91.536C213.594 91.088 214.106 90.504 214.49 89.784C214.874 89.048 215.066 88.248 215.066 87.384V82.128H213.242C213.194 82.016 213.17 81.904 213.17 81.792C213.17 81.648 213.218 81.496 213.314 81.336L215.69 80.88C215.962 81.024 216.186 81.2 216.362 81.408V91.872H218.186C218.234 91.984 218.258 92.096 218.258 92.208C218.258 92.352 218.21 92.504 218.114 92.664ZM231.205 81.96L230.533 79.032C229.493 78.616 228.477 78.408 227.485 78.408C226.333 78.408 225.325 78.696 224.461 79.272C223.597 79.832 222.925 80.624 222.445 81.648C221.981 82.672 221.749 83.872 221.749 85.248C221.749 86.64 221.989 87.84 222.469 88.848C222.965 89.856 223.661 90.64 224.557 91.2C225.469 91.744 226.541 92.016 227.773 92.016C229.197 92.016 230.565 91.68 231.877 91.008C232.101 91.28 232.253 91.6 232.333 91.968C231.741 92.352 231.013 92.664 230.149 92.904C229.285 93.128 228.421 93.24 227.557 93.24C226.101 93.24 224.829 92.912 223.741 92.256C222.669 91.6 221.829 90.672 221.221 89.472C220.629 88.272 220.333 86.864 220.333 85.248C220.333 83.648 220.621 82.256 221.197 81.072C221.789 79.872 222.613 78.944 223.669 78.288C224.741 77.616 225.981 77.28 227.389 77.28C228.045 77.28 228.741 77.36 229.477 77.52C230.229 77.68 230.925 77.904 231.565 78.192C231.661 78.304 231.749 78.424 231.829 78.552C231.909 78.68 231.973 78.8 232.021 78.912L232.069 82.032C231.973 82.096 231.845 82.128 231.685 82.128C231.509 82.128 231.349 82.072 231.205 81.96ZM245.029 92.664L242.653 93.12C242.381 92.976 242.157 92.8 241.981 92.592L242.101 90.864C241.589 91.616 240.957 92.2 240.205 92.616C239.469 93.032 238.653 93.24 237.757 93.24C236.653 93.24 235.757 92.928 235.069 92.304C234.397 91.68 234.061 90.872 234.061 89.88C234.061 88.744 234.509 87.864 235.405 87.24C236.317 86.6 237.597 86.28 239.245 86.28C239.613 86.28 240.037 86.296 240.517 86.328C240.997 86.36 241.501 86.416 242.029 86.496V85.536C242.029 83.072 240.917 81.84 238.693 81.84C238.117 81.84 237.501 81.944 236.845 82.152C236.205 82.344 235.613 82.624 235.069 82.992C234.957 82.896 234.853 82.76 234.757 82.584C234.661 82.392 234.613 82.232 234.613 82.104C235.237 81.672 235.901 81.344 236.605 81.12C237.325 80.88 238.021 80.76 238.693 80.76C241.749 80.76 243.277 82.352 243.277 85.536V91.872H245.101C245.149 91.984 245.173 92.096 245.173 92.208C245.173 92.352 245.125 92.504 245.029 92.664ZM242.029 88.488V87.528C241.517 87.464 241.021 87.416 240.541 87.384C240.061 87.336 239.629 87.312 239.245 87.312C237.981 87.312 237.021 87.528 236.365 87.96C235.709 88.376 235.381 89 235.381 89.832C235.381 90.536 235.605 91.104 236.053 91.536C236.517 91.968 237.125 92.184 237.877 92.184C238.581 92.184 239.245 92.008 239.869 91.656C240.509 91.304 241.029 90.848 241.429 90.288C241.829 89.728 242.029 89.128 242.029 88.488ZM252.336 93H246.744C246.696 92.872 246.672 92.76 246.672 92.664C246.672 92.536 246.72 92.384 246.816 92.208L248.448 92.016V82.128H246.624C246.576 82.016 246.552 81.904 246.552 81.792C246.552 81.648 246.6 81.496 246.696 81.336L249.072 80.88C249.344 81.024 249.568 81.2 249.744 81.408L249.432 84.336C249.864 83.28 250.464 82.44 251.232 81.816C252 81.176 252.84 80.856 253.752 80.856C253.928 80.856 254.128 80.872 254.352 80.904C254.592 80.92 254.808 80.952 255 81C255.176 81.208 255.328 81.448 255.456 81.72L255.504 84.336C255.392 84.384 255.272 84.408 255.144 84.408C254.984 84.408 254.832 84.36 254.688 84.264L254.16 81.936C254.096 81.92 254.032 81.912 253.968 81.912C253.92 81.912 253.872 81.912 253.824 81.912C253.136 81.912 252.48 82.152 251.855 82.632C251.232 83.096 250.72 83.712 250.32 84.48C249.936 85.232 249.744 86.024 249.744 86.856V91.968H252.096C252.352 91.968 252.48 92.08 252.48 92.304C252.48 92.4 252.448 92.568 252.384 92.808L252.336 93ZM263.046 93H257.454C257.406 92.872 257.382 92.76 257.382 92.664C257.382 92.536 257.43 92.384 257.526 92.208L259.158 92.016V82.128H257.334C257.286 82.016 257.262 81.904 257.262 81.792C257.262 81.648 257.31 81.496 257.406 81.336L259.782 80.88C260.054 81.024 260.278 81.2 260.454 81.408L260.142 84.336C260.574 83.28 261.174 82.44 261.942 81.816C262.71 81.176 263.55 80.856 264.462 80.856C264.638 80.856 264.838 80.872 265.062 80.904C265.302 80.92 265.518 80.952 265.71 81C265.886 81.208 266.038 81.448 266.166 81.72L266.214 84.336C266.102 84.384 265.982 84.408 265.854 84.408C265.694 84.408 265.542 84.36 265.398 84.264L264.87 81.936C264.806 81.92 264.742 81.912 264.678 81.912C264.63 81.912 264.582 81.912 264.534 81.912C263.846 81.912 263.19 82.152 262.566 82.632C261.942 83.096 261.43 83.712 261.03 84.48C260.646 85.232 260.454 86.024 260.454 86.856V91.968H262.806C263.062 91.968 263.19 92.08 263.19 92.304C263.19 92.4 263.158 92.568 263.094 92.808L263.046 93ZM277.057 86.736H268.993V87C268.993 88.552 269.393 89.792 270.193 90.72C271.009 91.632 272.097 92.088 273.457 92.088C274.081 92.088 274.721 92 275.377 91.824C276.049 91.648 276.593 91.448 277.009 91.224C277.137 91.352 277.233 91.496 277.297 91.656C277.361 91.8 277.401 91.952 277.417 92.112C276.089 92.864 274.697 93.24 273.241 93.24C272.121 93.24 271.145 92.984 270.313 92.472C269.481 91.944 268.833 91.216 268.369 90.288C267.905 89.344 267.673 88.248 267.673 87C267.673 85.736 267.889 84.64 268.321 83.712C268.769 82.768 269.401 82.04 270.217 81.528C271.033 81.016 271.993 80.76 273.097 80.76C276.041 80.76 277.513 82.512 277.513 86.016C277.385 86.288 277.233 86.528 277.057 86.736ZM269.089 85.704H276.241C276.241 83.112 275.193 81.816 273.097 81.816C272.041 81.816 271.153 82.168 270.433 82.872C269.729 83.576 269.281 84.52 269.089 85.704ZM285.242 93H279.65C279.602 92.872 279.578 92.76 279.578 92.664C279.578 92.536 279.626 92.384 279.722 92.208L281.354 92.016V82.128H279.53C279.482 82.016 279.458 81.904 279.458 81.792C279.458 81.648 279.506 81.496 279.602 81.336L281.978 80.88C282.25 81.024 282.474 81.2 282.65 81.408L282.338 84.336C282.77 83.28 283.37 82.44 284.138 81.816C284.906 81.176 285.746 80.856 286.658 80.856C286.834 80.856 287.034 80.872 287.258 80.904C287.498 80.92 287.714 80.952 287.906 81C288.082 81.208 288.234 81.448 288.362 81.72L288.41 84.336C288.298 84.384 288.178 84.408 288.05 84.408C287.89 84.408 287.738 84.36 287.594 84.264L287.066 81.936C287.002 81.92 286.938 81.912 286.874 81.912C286.826 81.912 286.778 81.912 286.73 81.912C286.042 81.912 285.386 82.152 284.762 82.632C284.138 83.096 283.626 83.712 283.226 84.48C282.842 85.232 282.65 86.024 282.65 86.856V91.968H285.002C285.258 91.968 285.386 92.08 285.386 92.304C285.386 92.4 285.354 92.568 285.29 92.808L285.242 93ZM300.74 92.664L298.364 93.12C298.092 92.976 297.868 92.8 297.692 92.592L297.812 90.864C297.3 91.616 296.668 92.2 295.916 92.616C295.18 93.032 294.364 93.24 293.468 93.24C292.364 93.24 291.468 92.928 290.78 92.304C290.108 91.68 289.772 90.872 289.772 89.88C289.772 88.744 290.22 87.864 291.116 87.24C292.028 86.6 293.308 86.28 294.956 86.28C295.324 86.28 295.748 86.296 296.228 86.328C296.708 86.36 297.212 86.416 297.74 86.496V85.536C297.74 83.072 296.628 81.84 294.404 81.84C293.828 81.84 293.212 81.944 292.556 82.152C291.916 82.344 291.324 82.624 290.78 82.992C290.668 82.896 290.564 82.76 290.468 82.584C290.372 82.392 290.324 82.232 290.324 82.104C290.948 81.672 291.612 81.344 292.316 81.12C293.036 80.88 293.732 80.76 294.404 80.76C297.46 80.76 298.988 82.352 298.988 85.536V91.872H300.812C300.86 91.984 300.884 92.096 300.884 92.208C300.884 92.352 300.836 92.504 300.74 92.664ZM297.74 88.488V87.528C297.228 87.464 296.732 87.416 296.252 87.384C295.772 87.336 295.34 87.312 294.956 87.312C293.692 87.312 292.732 87.528 292.076 87.96C291.42 88.376 291.092 89 291.092 89.832C291.092 90.536 291.316 91.104 291.764 91.536C292.228 91.968 292.836 92.184 293.588 92.184C294.292 92.184 294.956 92.008 295.58 91.656C296.22 91.304 296.74 90.848 297.14 90.288C297.54 89.728 297.74 89.128 297.74 88.488Z" fill="black"/>
<defs>
<clipPath id="clip0">
<rect width="32" height="32" fill="white" transform="translate(0 1)"/>
</clipPath>
<clipPath id="clip1">
<rect width="32" height="32" fill="white" transform="translate(394 1)"/>
</clipPath>
<clipPath id="clip2">
<rect width="32" height="32" fill="white" transform="translate(197)"/>
</clipPath>
</defs>
</svg>
